/* XPM */
static char *_1c2f70fdc7b4410942cfcc7b93bed66DDZQgodznaMlPibW[] = {
/* columns rows colors chars-per-pixel */
"64 64 25 1 ",
"  c black",
". c #082C13",
"X c #2A3907",
"o c #293928",
"O c #343E2F",
"+ c #0C421C",
"@ c #0E4D21",
"# c #156E2F",
"$ c #49640C",
"% c #475928",
"& c #198439",
"* c #1B8F3D",
"= c #6B901C",
"- c #7EAC15",
"; c #1FA547",
": c #22B14C",
"> c #43BE61",
", c #4EC368",
"< c #88BA17",
"1 c #9DD71B",
"2 c #A8E61D",
"3 c #819A6B",
"4 c #9EBA8D",
"5 c #A6E7A0",
"6 c #D3F9BC",
/* pixels */
"2222222222222222222222222222222222222222222222222222222222222222",
"2222222222222222222222222222222222222222222222222222222222222222",
"2222222222222222222222222222222222222222222222222222222222222222",
"2222222222222222222222222222222222222222222222222222222222222222",
"2222222222222222222222222222222222222222222222222222222222222222",
"2222222222222222222222222222222222222222222222222222222222222222",
"2222222222222222222222222222222222222222222222222222222222222222",
"2222222222222222222222222222222222222222222222222222222222222222",
"2222222222222222222222222222222222222222222222222222222222222222",
"22222222222222222222222$XXXXXXXXXXXXXXXXX<2222222222222222222222",
"22222222222222222222222X                 -2222222222222222222222",
"22222222222222222222222X                 -2222222222222222222222",
"22222222222222222222   &:::::::::::::::::.  22222222222222222222",
"22222222222222222222   &:::::::::::::::::.  22222222222222222222",
"22222222222222222222   &:::::::::::::::::.  22222222222222222222",
"22222222222222222$XX&&&;:::::::::::::::::*&&XXX<2222222222222222",
"22222222222222222X  ::::::::::::::::::::::::   -2222222222222222",
"22222222222222222X  ::::::::::::::::::::::::   -2222222222222222",
"22222222222222222X  ::::::::::::::::::::::::   -2222222222222222",
"22222222222222222X  ::::::::::::::::::::::::   -2222222222222222",
"22222222222222222X  ::::::::::::::::::::::::   -2222222222222222",
"22222222222222XXX344::::::::::::::::::::::::444%XX22222222222222",
"22222222222222   466::::::::::::::::::::::::666O  22222222222222",
"22222222222222   466::::::::::::::::::::::::666O  22222222222222",
"22222222222222   466::::::::::::::::::::::::666O  22222222222222",
"22222222222222   466::::::::::::::::::::::::666O  22222222222222",
"22222222222222   466::::::::::::::::::::::::666O  22222222222222",
"22222222222222---%OO::::::::::::::::::::::::OOO=--22222222222222",
"22222222222222222X  ::::::::::::::::::::::::   -2222222222222222",
"22222222222222222X  ::::::::::::::::::::::::   -2222222222222222",
"22222222222222222222   &:::::::::::::::::.  22222222222222222222",
"22222222222222222222   &:::::::::::::::::.  22222222222222222222",
"22222222222222222222   &:::::::::::::::::.  22222222222222222222",
"22222222222222222$XX&&&+.....*:::::@.....#&&XXX<2222222222222222",
"22222222222222222X  :::.     &:::::.     &::   -2222222222222222",
"22222222222222222X  :::.     &:::::.     &::   -2222222222222222",
"22222222222222   &:::::::::::::::::::::::::::::.  22222222222222",
"22222222222222   &:::::::::::::::::::::::::::::.  22222222222222",
"22222222222222   &:::::::::::::::::::::::::::::.  22222222222222",
"22222222222$XX&&&;::...*:::::::::::::::::@..:::*&&XXX<2222222222",
"22222222222X  ::::::   &:::::::::::::::::.  ::::::   -2222222222",
"22222222222X  ::::::   &:::::::::::::::::.  ::::::   -2222222222",
"22222222222X  :::>,,   &:::::::::::::::::.  ,,>:::   -2222222222",
"22222222222X  :::566   &:::::::::::::::::.  665:::   -2222222222",
"22222222222X  :::566   &:::::::::::::::::.  665:::   -2222222222",
"22222222222<--...oOO   &:::::::::::::::::.  OOo...---12222222222",
"22222222222222         &:::::::::::::::::.        22222222222222",
"22222222222222         &:::::::::::::::::.        22222222222222",
"22222222222222222222   &:::::.     &:::::.  22222222222222222222",
"22222222222222222222   &:::::.     &:::::.  22222222222222222222",
"22222222222222222222   &:::::.     &:::::.  22222222222222222222",
"22222222222222222222   &:::::.     &:::::.  22222222222222222222",
"22222222222222222222   &:::::.     &:::::.  22222222222222222222",
"22222222222222222222   &:::::.     &:::::.  22222222222222222222",
"2222222222222222222222222222222222222222222222222222222222222222",
"2222222222222222222222222222222222222222222222222222222222222222",
"2222222222222222222222222222222222222222222222222222222222222222",
"2222222222222222222222222222222222222222222222222222222222222222",
"2222222222222222222222222222222222222222222222222222222222222222",
"2222222222222222222222222222222222222222222222222222222222222222",
"2222222222222222222222222222222222222222222222222222222222222222",
"2222222222222222222222222222222222222222222222222222222222222222",
"2222222222222222222222222222222222222222222222222222222222222222",
"2222222222222222222222222222222222222222222222222222222222222222"
};
