/* XPM */
static char *_9b0614dffac405686d1d76235d1e8efK3WQlEZmoyl8az67[] = {
/* columns rows colors chars-per-pixel */
"64 64 6 1 ",
"  c black",
". c #288342",
"X c #22B14C",
"o c #08E349",
"O c #A8E61D",
"+ c #D3F9BC",
/* pixels */
"OOOOOOOOOOOOOOOOOOOOOOOOOOOOOOOOOOOOOOOOOOOOOOOOOOOOOOOOOOOOOOOO",
"OOOOOOOOOOOOOOOOOOOOOOOOOOOOOOOOOOOOOOOOOOOOOOOOOOOOOOOOOOOOOOOO",
"OOOOOOOOOOOOOOOOOOOOOOOOOOOOOO   OOOOOOOOOOOOOOOOOOOOOOOOOOOOOOO",
"OOOOOOOOOOOOOOOOOOOOOOOOOOOO  XXX  OOOOOOOOOOOOOOOOOOOOOOOOOOOOO",
"OOOOOOOOOOOOOOOOOOOOOOOOOOO XXXXX++ OOOOOOOOOOOOOOOOOOOOOOOOOOOO",
"OOOOOOOOOOOOOOOOOOOOOOOOOO XXXX XXX+ OOOOOOOOOOOOOOOOOOOOOOOOOOO",
"OOOOOOOOOOOOOOOOOOOOOOOOOO XXX X+XX+ OOOOOOOOOOOOOOOOOOOOOOOOOOO",
"OOOOOOOOOOOOOOOOOOOOOOOOO XXXX X+XXX+ OOOOOOOOOOOOOOOOOOOOOOOOOO",
"OOOOOOOOOOOOOOOOOOOOOOOOO XXXX X+XXX+ OOOOOOOOOOOOOOOOOOOOOOOOOO",
"OOOOOOOOOOOOOOOOOOOOOOOOO XXXX X+XXX+ OOOOOOOOOOOOOOOOOOOOOOOOOO",
"OOOOOOOOOOOOOOOOOOOOOOOOOO XXX X+XX+ OOOOOOOOOOOOOOOOOOOOOOOOOOO",
"OOOOOOOOOOOOOOOOOOOOOOOOOO XXXX XXX+ OOOOOOOOOOOOOOOOOOOOOOOOOOO",
"OOOOOOOOOOOOOOOOOOOOOOOOOOO XXXXXX+ OOOOOOOOOOOOOOOOOOOOOOOOOOOO",
"OOOOOOOOOOOOOOOOOOOOOOOOOOOO  XXX  OOOOOOOOOOOOOOOO  OOOOOOOOOOO",
"OOOOOOOOOOOOOOOOOOOOOOOOOOOOOO   OOOOOOOOOOOOOOOOO X+ OOOOOOOOOO",
"OOOOOOOOOOOOOOOO  OOOOOOOOOOOOOOOOOOOOOOOOOOOOOOO X X+ OOOOOOOOO",
"OOOOOOOOOOOOOOO X+ OOOOO                OOOOOOOOO X X+ OOOOOOOOO",
"OOOOOOOOOOOOOO X X+ OOOO                OOOOOOOOOO XX OOOOOOOOOO",
"OOOOOOOOOOOOOO X X+ OO  ..XXXXXXXXXXXXX+  OOOOOOOOO  OOOOOOOOOOO",
"OOOOOOOOOOOOOOO XX OOO  ....XXX..XXX..X+  OOOOOOOOOOOOOOOOOOOOOO",
"OOOOOOOOOOOOOOOO  OOOO  ....XXX..XXX..X+  OOOOOOOOOOOOOOOOOOOOOO",
"OOOOOOOOOOOOOOOOOOOOOO  ..XXXXXXXXXXXXX+  OOOOOOOOOOOOOOOOOOOOOO",
"OOOOOOOO  OOOOOOOOOO  ..................++  OOOOOOOOOOOOOOOOOOOO",
"OOOOOOO X+ OOOOOOOOO  ..oo.ooooo.oooo.oo++  OOOOOOOOOOOOOOOOOOOO",
"OOOOOOO  X OOOOOOOOO  ..oo.ooooo.oooo.oo++  OOOOO  OOOOOOOOOOOOO",
"OOOOOOOO  OOOOOOOOOO  ..oo.ooooo.oooo.oo++  OOOO X+ OOOOOOOOOOOO",
"OOOOOOOOOOOOOOOOOO  ..oooo.ooooo.oooo.oooo++  OO  X OOOOOOOOOOOO",
"OOOOOOOOOOOO  OOOO  ..ooo.oooooo.ooooo.ooo++  OOO  OOOOOOOOOOOOO",
"OOOOOOOOOOO X+ OOO  ..ooo.oooooo.ooooo.ooo++  OOOOOOOOOOOOOOOOOO",
"OOOOOOOOOOO  X OOO  ..ooo.oooooo.ooooo.ooo++  OOOOOOOOOOOOOOOOOO",
"OOOOOOOOOOOO  OOOO  XXXXXXXXXXXXXXXXXXXXXXXX  OOOOOOOOOOOOOOOOOO",
"OOOOOOOOOOOOOOOOOO  XXXX..XXXXX..XXXXX..XXXX  OOOOOOOOOOOOOOOOOO",
"OOOOOOOO  OOOOOOOO  XXXX..XXXXX..XXXXX..XXXX  OOOO   OOOOOOOOOOO",
"OOOOOOO X+ OOOOOOO  XXXXXXXXXXXXXXXXXXXXXXXX  OOO X++ OOOOOOOOOO",
"OOOOOO X X+ OOOOOO  ........................  OOO  X+ OOOOOOOOOO",
"OOOOOO X X+ OOOOOO  ..ooo.oooooo.ooooo.ooo++  OOO  XX OOOOOOOOOO",
"OOOOOOO XX OOOOOOO  ..ooo.oooooo.ooooo.ooo++  OOOO   OOOOOOOOOOO",
"OOOOOOOO  OOOOOOOO  ..ooo.oooooo.ooooo.ooo++  OOOOOOOOOOOOOOOOOO",
"OOOOOOOOOOOOOOOOOOOO  ..oo.ooooo.oooo.oo++  OOOOOOOOOOOOOOOOOOOO",
"OOOOOOOOOOOOOOO OOOO  ..oo.ooooo.oooo.oo++  OOOOOOOOOOOOOOOOOOOO",
"OOOOOOOOOOOOOO X OOO  ..oo.ooooo.oooo.oo++  OOOOOOOOOOOOOOOOOOOO",
"OOOOOOOOOOOOOOO OOOO  ..oo.ooooo.oooo.oo++  OOOOOOOOOOOOOOOOOOOO",
"OOOOOOOOOOOOOOOOOOOOOO  ..XXXXXXXXXXXXX+  OOOOOOOOOOOOOOOOOOOOOO",
"OOOOOOOOOOOOOOOOOOOOOO  ....XXX..XXX..X+  OOOOOOOOOOOOOOOOOOOOOO",
"OOOOOOOOOO   OOOOOOOOO  ....XXX..XXX..X+  OOOOOOOOOOOOOOOOOOOOOO",
"OOOOOOOOO X++ OOOOOOOO  ...............+  OOOOOO    OOOOOOOOOOOO",
"OOOOOOOOO  X+ OOOOOOOOOO                OOOOOOO X+++ OOOOOOOOOOO",
"OOOOOOOOOO   OOOOOOOOOOO                OOOOOOO   X+ OOOOOOOOOOO",
"OOOOOOOOOOOOOOOOOOOOOOOOOOOOOOOOOOOOOOOOOOOOOOOO    OOOOOOOOOOOO",
"OOOOOOOOOOOOOOOOOOOOOOOOOOOOOOOOOOOOOOOOOOOOOOOOOOOOOOOOOOOOOOOO",
"OOOOOOOOOOOOOOOOOOOOOOOOOOOOOOOOOOOOOOOOOOOOOOOOOOOOOOOOOOOOOOOO",
"OOOOOOOOOOOOOOOOOOOOOOOOOOOOOOOOOOOOOOOOOOOOOOOOOOOOOOOOOOOOOOOO",
"OOOOOOOOOOOOOOOOOOOOOOOOOOOOOOOOOOOOOOOOOOOOOOOOOOOOOOOOOOOOOOOO",
"OOOOOOOOOOOOOOOOOOOOOOOOOOOOOOOOOOOOOOOOOOOOOOOOOOOOOOOOOOOOOOOO",
"OOOOOOOOOOOOOOOOOOOOOOOOOOOOOOOOOOOOOOOOOOOOOOOOOOOOOOOOOOOOOOOO",
"OOOOOOOOOOOOOOOOOOOOOOOOOOOOOOOOOOOOOOOOOOOOOOOOOOOOOOOOOOOOOOOO",
"OOOOOOOOOOOOOOOOOOOOOOOOOOOOOOOOOOOOOOOOOOOOOOOOOOOOOOOOOOOOOOOO",
"OOOOOOOOOOOOOOOOOOOOOOOOOOOOOOOOOOOOOOOOOOOOOOOOOOOOOOOOOOOOOOOO",
"OOOOOOOOOOOOOOOOOOOOOOOOOOOOOOOOOOOOOOOOOOOOOOOOOOOOOOOOOOOOOOOO",
"OOOOOOOOOOOOOOOOOOOOOOOOOOOOOOOOOOOOOOOOOOOOOOOOOOOOOOOOOOOOOOOO",
"OOOOOOOOOOOOOOOOOOOOOOOOOOOOOOOOOOOOOOOOOOOOOOOOOOOOOOOOOOOOOOOO",
"OOOOOOOOOOOOOOOOOOOOOOOOOOOOOOOOOOOOOOOOOOOOOOOOOOOOOOOOOOOOOOOO",
"OOOOOOOOOOOOOOOOOOOOOOOOOOOOOOOOOOOOOOOOOOOOOOOOOOOOOOOOOOOOOOOO",
"OOOOOOOOOOOOOOOOOOOOOOOOOOOOOOOOOOOOOOOOOOOOOOOOOOOOOOOOOOOOOOOO"
};
