/* XPM */
static char *result[] = {
/* columns rows colors chars-per-pixel */
"64 64 223 2 ",
"   c #30322D",
".  c #383E2E",
"X  c #313633",
"o  c #3A3E34",
"O  c #333938",
"+  c #2F312D",
"@  c #3D4437",
"#  c #5A7D1F",
"$  c #57771F",
"%  c #42453B",
"&  c #454B3A",
"*  c #424934",
"=  c #4A5637",
"-  c #525B3E",
";  c #44512D",
":  c #577524",
">  c #5B7E20",
",  c #587628",
"<  c #4B6239",
"1  c #576D32",
"2  c #353E44",
"3  c #0E267A",
"4  c #0D2575",
"5  c #11267D",
"6  c #384448",
"7  c #374656",
"8  c #374C68",
"9  c #365179",
"0  c #43484B",
"q  c #4D5A46",
"w  c #565D45",
"e  c #454D56",
"r  c #4C545D",
"t  c #485656",
"y  c #5D5B5A",
"u  c #575754",
"i  c #566142",
"p  c #5C6A43",
"a  c #586340",
"s  c #596156",
"d  c #606D45",
"f  c #697B49",
"g  c #667847",
"h  c #62615F",
"j  c #4B5A68",
"k  c #525D6A",
"l  c #455E7A",
"z  c #59656D",
"x  c #59667B",
"c  c #68676A",
"v  c #716F6B",
"b  c #74726F",
"n  c #646C79",
"m  c #777776",
"M  c #817F7C",
"N  c #5C801F",
"B  c #5E8121",
"V  c #628523",
"C  c #668924",
"Z  c #698A25",
"A  c #62822A",
"S  c #6A843C",
"D  c #678534",
"F  c #6B8344",
"G  c #6E8349",
"H  c #738948",
"J  c #82817D",
"K  c #101F88",
"L  c #112582",
"P  c #11238E",
"I  c #152A8A",
"U  c #122392",
"Y  c #142C94",
"T  c #152D9D",
"R  c #162899",
"E  c #0D389D",
"W  c #14349B",
"Q  c #172D85",
"!  c #333D95",
"~  c #313985",
"^  c #162BA7",
"/  c #0E3BA8",
"(  c #1333A2",
")  c #113BAC",
"_  c #1735AB",
"`  c #123CB3",
"'  c #143DBB",
"]  c #193ABB",
"[  c #1735B7",
"{  c #162ABA",
"}  c #2333A8",
"|  c #263AB7",
" . c #375788",
".. c #2A5598",
"X. c #365A98",
"o. c #334A90",
"O. c #1744A9",
"+. c #1343BD",
"@. c #1745B7",
"#. c #1E53B4",
"$. c #1649B5",
"%. c #244EAC",
"&. c #2857AA",
"*. c #3A5AA7",
"=. c #294AB8",
"-. c #2354B4",
";. c #2A55BD",
":. c #2B57B6",
">. c #3657BE",
",. c #3C47A8",
"<. c #3462BA",
"1. c #465D94",
"2. c #4A668B",
"3. c #5A6983",
"4. c #667189",
"5. c #777B88",
"6. c #677A9F",
"7. c #4957B9",
"8. c #515CA3",
"9. c #4768A7",
"0. c #5268A5",
"q. c #5567B7",
"w. c #516EB0",
"e. c #6D7AA6",
"r. c #6779B5",
"t. c #747DB4",
"y. c #737BAF",
"u. c #1B3BC4",
"i. c #1938C7",
"p. c #1C38DA",
"a. c #192EC2",
"s. c #223DD6",
"d. c #1A3AEC",
"f. c #1837E7",
"g. c #1C3AF4",
"h. c #1938F4",
"j. c #213DE8",
"k. c #223EF6",
"l. c #223DF9",
"z. c #1343C4",
"x. c #1A4AC3",
"c. c #1445CC",
"v. c #1249CB",
"b. c #1C4CCD",
"n. c #144AC6",
"m. c #1E53C6",
"M. c #1645D2",
"N. c #1B4CD2",
"B. c #1A44DB",
"V. c #1C48D8",
"C. c #1D51D6",
"Z. c #2144C1",
"A. c #344ACA",
"S. c #2758CB",
"D. c #3659C4",
"F. c #2242DD",
"G. c #2448DA",
"H. c #324CD8",
"J. c #2755D0",
"K. c #3859D9",
"L. c #3E64D8",
"P. c #3261C0",
"I. c #1C45E2",
"U. c #1C48E6",
"Y. c #2146E6",
"T. c #2345EC",
"R. c #284CE4",
"E. c #314BE8",
"W. c #2950E8",
"Q. c #3857EA",
"!. c #2645F3",
"~. c #2946F7",
"^. c #2A4AF4",
"/. c #2541F8",
"(. c #2A46F9",
"). c #334CF5",
"_. c #354CF9",
"`. c #3352F2",
"'. c #3B54F8",
"]. c #2E50F2",
"[. c #4A5ACA",
"{. c #4757CB",
"}. c #4B67C6",
"|. c #5667CA",
" X c #5976C6",
".X c #4A68D2",
"XX c #5969DA",
"oX c #5A77DB",
"OX c #4C73D5",
"+X c #606FCC",
"@X c #6374C9",
"#X c #6477D5",
"$X c #616FD0",
"%X c #425BEB",
"&X c #515FE7",
"*X c #455BF6",
"=X c #4B5BF9",
"-X c #4559F7",
";X c #4964E3",
":X c #596CE5",
">X c #5C6DED",
",X c #5568E7",
"<X c #4A62F6",
"1X c #5569F5",
"2X c #5366F9",
"3X c #5969F3",
"4X c #5972F4",
"5X c #5473E2",
"6X c #6273EA",
"7X c #6677E6",
"8X c #6679F7",
"9X c #606FEF",
"0X c #7E8189",
"qX c #7185B9",
"wX c #718AD2",
"eX c #6983E4",
"rX c #718BE4",
"tX c #7582EF",
"yX c #6C81F6",
"uX c #788DEA",
"iX c #83848B",
"pX c #868480",
"aX c #848793",
/* pixels */
"> # > > # # B > > > > # > > > > # > > > > > > > > > > > # N N B > > # > > > > > > > B # > > > > > > > > > B # # # > > > > B > > ",
"> V B V B > # > > > > > > > > > > # > > > > > > B N N B # N B V B > B # > > > > > > # > > > > > > > B # > > B B N B # > B V V B ",
"B Z C C # > # B B V N > > # > > # B > B > # B # C V V B : N C C B > > > > # B B B # > > > > > # > # # > # > B C V V B > B Z V B ",
"> V C B B > # B Z C B > > B # > B B B B > > # B V C V > > > B B N > > > > B C Z V B > > > > > B V B B > # N B C C V > > > V B # ",
"> B B B # > > B V V B > > > > B B C C C # B > > B B > : B > B # > B > > > > > V B B # > B B B B C C B # > > B B V B # B > > > > ",
"# > > > > > > > > > # > > > > V V V C B > > > > > B > > # > B B B B B > > # > > > > > > > B C B C C B > # > > > > > > # > > > > ",
"> > > > > > # > > > > > > > > B B B B N > # > > > > > > > > > C C Z B > > > > > > > > > > > B B B B > > B > > > > > > > > > > > ",
"> > > > > > > > # > # > > > > # > > > B > > > > > > > > > > # B C B > > > > : > # B > > > > > # # > > # # > > # # > > > > > > > ",
"> > > > > > > # > > > # > > > > > > > # > > # > # > > > > > # # B > > > # # # > > > > > > > > > > > > > > > > > > > > > > > > > ",
"> > > > # > > # > > > > > > > > > > > > > > B V B B > > > > > B > > > > # B > > > > > > > > > > > > > > > B B B > > > # > > > > ",
"> > > > > > V B > V > > > > > > # > > > > > B Z C B # > > > B B > > > > N B B B B > # > # > > > > > > > > V Z V > > > > > > # > ",
"> > > > > > V V V V > > > # > > B # > > > > > B B B B # > > , B > > > > B C V C B > > > B # > > > > > > > B V B > > > > > > > > ",
"> > > > # > V V V B > > > > > > > > > > > > # > # # > > B B B B > > # N N V B B B # > > > > > > # > > > > > > > # # B B B > > > ",
"> > > > > > > > # > > # > > > > > > > > > > > > # > B B B C B B N N # N > B > > > > > # > > > > > > # B # > > > N # V C V B B > ",
"> > > > > > > > > > > > > > # B N # # N B # > > # # # # C C A B B B B N # B > # > # > > > > # > > # B # > > > > # > B Z Z B V B ",
"> > > > > > > # > > > > > > > # B B B V B B N B $ # , < i s z z k j t < , : # # > > > > > > B # V B V B > > > # B # N C B V B # ",
"> V Z > > V # # > > > # # B > > > B C B B > : 1 = q x e.r. X}.D.=.%.:.X.2.j < > : > > > > > > > V V V B > > > > > > > > > > # > ",
"> Z Z V V V > > > # B B B B # B # > B B , ; @ t 4.r.#Xq..X%XU.f.i.[ Y.U.C.;.*.l 0 , > V > > > > # > > > > > > > > > > > > > > > ",
"> V Z > V > > > # B V C C V N # > > B F ; u z e.#XoX,X7.>.R.f.f.i.i.^.^.].R.Z.Z.X.y w > B > > > > > > > > > > > > > > > > > > > ",
"> > > > > > > > # B V C V B # # # B G % y b 4.@X:X:X>X[.A.f.f.h.p.s.^.^.`.A.=.Q.D.x v y , > > > > > > > > > > > > > > > > > > > ",
"> > # > > > > > > > B B B > > > > f % u m J m 8.XX9X3X&Xs.f.h.h.f.d.!.).'.A.{.<X|.5.m m u = $ > > > > > > > > > # : > > # # > > ",
"> # > > > > > > > > > > > > > B S @ u v M iXy.7.[.9X3X3X%Xh.h.h.h.h.g.~.`.K.-X<X>Xt.iXJ b u ; > B > > > > > > > > > > > V > B > ",
"> > > > > > > > > > > > > > # B G   z m iXt.7XXX|.,X3X3X=Xj.f.p.f.f.d.g.~.*X<X<X1X|.e.5.n r + S B > > > > > > > > > > V V V V # ",
"> > > > > > # > > > > > > > > A d 0 y.r.t.#X6X6X:X>X3X&X7.} U K K U ^ i.d.).2X1X&X.X$X@X}...O g B V V B V > > > > > > B V V > > ",
"> > > # > B B # # > > > > > B S o 4.wX8.q.XX7X6X9X3X[.! ~ ! } { { ^ U K R p.-X2X3X>X8X8X4XD.8 @ S V C V C B > > > > > > > > > > ",
"> > # V # V C V # > # > > > B d 0 wXrX@X X|.7X6X>X7.~ ! {.&X-X(.g.g.f.a.P P s.=X4X8X8XyXyXL...O g B B B B B > > > > > > > > # > ",
"> > # B V V C Z N : > > # > D * n wXrXrXeXeX6X6X[.~ 7.&X2X2X2X=Xl.l.l.l.p.R K s.2X8XyX7XoX7.-.7 = D B > B # # > > > > # > > > > ",
"> > # # V B V V N # # : # V F O qXuXrXeX5X;XQ.H.~ R H.)._.-X=X=X=X_.l.l.l.s.P ^ E.8X8X$X+X}.J.o.. S B # # # # B > > > > > > > > ",
"> > > > # B > > # B # > # B f 0 qXwXOXS.N.B.B._ 5 s.T.~.~.k./._._.-X-Xk.l.l.a.K s.'.6XtXuX4XC...X G B > B # # # > # > > > # > > ",
"# B > > > # > # > # > > B C p r t.X.E ` c.B.V.I Y j.^.!.(.(.~./.l.k._.-X_.l.j.R ^ T.*X8XyXQ.U.&.2 g > > # # B # B B > > > > > > ",
"# > > > > > > > > > > > B D w k }.n.+.u.c.B.c.L [ T.^.^.^.~.~.(.k.l.l.k._._.E.} Y d.!.].`.U.U.%.7 p , B # B V V V B > > > > > > ",
"> > > > > > > > > > # > B B - j <.v.v.v.c.V.] 5 u.T.^.T.!.^.~.(.(.k.k.k.k._._.| I F.!.B.u.) ) %.7 i > B $ # V V V B > # > > > > ",
"B B B B B > > # B # > > > C = 8 #.v.v.c.M.M.' 3 u.T.T.T.!.^.^.~.(.(.k.k.k.k.~.| Q E.`.G.] W E %.7 i , B > > B B # B # # V V V # ",
"N C C C # > > B N B B > > B - 7 #.z.z.z.c.M.u.3 [ Y.T.T.!.!.~.!.(.(.~.k.j.~.j.^ R H.`.E.R.G.N.&.7 1 : > > > V V V V B # B Z V B ",
"B V C V B # > B C C B > > > p 7 ..E E ) z.M.z.L W F.T.T.T.!.!.!.^.^.^.~.g.!.j.U ^ Y.`.W.W.W.C.&.2 g B > # > B C Z V # B B V V # ",
"> B B B > # # B B V B > , B g 6 ..O.+.c.c.c.c.T 5 u.Y.T.T.T.!.T.!.!.T.!.!.!.a.L ] U.R.R.G.C.C...2 H B > B # # V V # # # # > # # ",
"> > > > > > # > B B > > : B G X ..S.L.m.M.M.M.' 3 W B.Y.T.T.T.T.!.T.!.!.!.p.I Y p.U.B.Z.@.x.x. .X H B > > > > > B > > > > > > > ",
"> > B # > > > > B > > > > > D @ 8 :.eXL.v.c.c.c.( 4 ( B.Y.U.T.T.T.T.T.T.p.T L u.I.I.B.b.O./ &.8 = D B > > > > > # > > > > # > > ",
"> > # > > > > > > > > > > > B p 6 ..OXOX=.` z.M.z.T 4 Y i.B.I.I.Y.Y.F.u.Y 3 [ B.I.B.V.N.J.x.X.2 g B # > > > > > > > > > # > > > ",
"> > > > > > > > # > > > > > B F O 9 <.*.*.x.M.M.M.z.( 4 3 Y [ ' ] _ Y 5 L ' B.B.M.M.v.b.C.;.8 o S B # B > > > > > > > > > > > > ",
"> > > > > # > > > > > > > > B A i 7 ..*.q.L.N.M.c.M.c.` W L 3 4 5 3 I ( i.B.B.M.u.` z.;.;.X.2 p B # > > > B B B B # > # > > > > ",
"> # # > > B N B > > > > > > > B F + j n 0Xr.K.v.' z.M.M.v.u.' ` [ +.c.M.M.M.M.v.z.O.X.5.x j + S B # > > > V C C B > > > > # > > ",
"> > B > # B B C V V > > > > > B S @ u b M aXw.&.` c.v.v.v.c.M.M.M.M.M.M.c.z.c.v.x.0.0XJ v u @ S B > > > > B C B # B # > N : # > ",
"> > # > # B V V V V > > > > > > B g % z M M 5.X.S.b.v.v.' z.M.M.z.c.c.M.z.) +.v.:.5.J m y * f A > > > > > > # > # > > > # > > > ",
"B # > > B B N B > > > > > > > > > A g % h v n :.S.S.C.+./ i.c.v.' +.v.v.c.) E n.:.n b h % g > > > > > > > > > > > # B V V B > > ",
"# > > > # # > # > > > > > > > > > > B g % u k X.m.S.v.O./ v.v.v.` / v.v.v.+.#.<.9.z y * , > : > B > > > > > > > > B V C C B V B ",
"> > N # > # > > > > > > > > > > > B B A f o   e  .X.#.O.+.v.v.v./ / n.v.S.P.*.2.e X . : V > > > V B V B > > > > > > B C V B B B ",
"N B V B B > > > > > > > > > > > > B C V C F f w 6 t l X...#.#.#.-.&.<.9.0.3.r @ 1 , $ > # > > > V V V > > # > > > > # B N > > # ",
"B C C B B C > # # > N N B B B N > > V # # B B A F d & 0 j j x 3.3.x x r % & d : B B B B > > > > B B B > > > > > > > > > > B # > ",
"# C C V B B > B # B C C C B B > # > # # > > $ > B B S H g p w = i i d f > # N B B C C V B > > > > > > > > > > > B # # > > > > > ",
"# B B B B # > > > B B Z C B # > > > > > > > > > # > B B B > : > > , > > B B > > B C C V B > > > > > > > > > > > # > > > > > > # ",
"> > > N > # > > > > B B B > > > > > > # > > > > > > > > # B N > > > > > > > > > B V B # > > > > > > > > # > > > > > > > > > > > ",
"> > > > > # > > > > > > # > > > > > > # > # > # > > > > B B B B > : B # > > > # > > > > > > # > > > > > # B > > > # > B B B B # ",
"> > > > # > > # # > > > > > > # > > > B > B > # > > # B B V V V > > > # # B > > > > > > > > > > > > > N B # > > > # B V C V B # ",
"> > > > B > > : > # > # > > > > > > B V B V B # > > > # N B V B # > > > # # > > > > # > > > > > B B B B B > # > > > > > V V B # ",
"> # > > # > B # : > > > > > > > # # B V V V V B > > > > > > > > B > > > B > > > > > > > > > > # > B C V C > # > > > > > > # B # ",
"> > # B B B C V N N > > > > > > > # > B B B B > > # > > > > > > # > N B V V B B > # > > > > > > > > B B B > > > > > > > > # > > ",
"> > > B B V C C N B > # > > > > > > > > > B > > > > > # > > > # # B C B C C V B > > > > > > > > > > > > > # > > > > > > # B > > ",
"> > > B C B B V > > > # > > # B > > > # > > > > > > > B > # # B > > B B V V B # > > # B > # # > : # > > > > > > > > > > > # > > ",
"> > > > B B B > > > > B > B B N B > > > > B # > > > > > > > > > > > B N > B > # > > > B B B B # > # > > > > > # # > > > B > > > ",
"> B # > > > > > > > > > B C B C B B # > > > > > B N N > > > > > # > > > > > > > > > > B C V V > > > > > > > > # B > B # # > > > ",
"> # > > > > > > > > > > B B B B > > > > > > > B V B B > > > > > B > > > > > > > > > B B V V B > # > > > # > V V V B # > > > > > ",
"> # > > > > > > > > > > > B B > > > > > > > > > V V B B > > > > # > > > # B > > > > > > B > > > > > # > > B V V V B > > > > # > ",
"> > > > > > > > > > > > > > > > > > > > > > > > B B > > # > > > > > > > # > > > > > > > > > > > > > > > > > # B B # > > > > > > "
};
