/* XPM */
static char *result[] = {
/* columns rows colors chars-per-pixel */
"64 64 177 2 ",
"   c #0D0D0B",
".  c #140F0E",
"X  c #12110D",
"o  c #110F10",
"O  c #191715",
"+  c #1A1917",
"@  c #1D171D",
"#  c #1D1C1A",
"$  c #171518",
"%  c #211D1D",
"&  c #182507",
"*  c #1C2B02",
"=  c #1C2609",
"-  c #1C290C",
";  c #1D3002",
":  c #1F2B11",
">  c #1C211A",
",  c #1F3010",
"<  c #212D0C",
"1  c #20260A",
"2  c #223405",
"3  c #24310D",
"4  c #222D11",
"5  c #21211E",
"6  c #253112",
"7  c #293416",
"8  c #26331A",
"9  c #2A341B",
"0  c #2E381B",
"q  c #201920",
"w  c #252422",
"e  c #2A2927",
"r  c #2B2B29",
"t  c #292524",
"y  c #2C3323",
"u  c #353C2B",
"i  c #3B3D36",
"p  c #3D3D3C",
"a  c #373934",
"s  c #38402B",
"d  c #3C4235",
"f  c #3F443D",
"g  c #517615",
"h  c #557B16",
"j  c #5A7E16",
"k  c #52751A",
"l  c #59741D",
"z  c #567B1C",
"x  c #5A7E1D",
"c  c #637E1E",
"v  c #404735",
"b  c #41453C",
"n  c #444A3B",
"m  c #4A4C3F",
"M  c #4A513F",
"N  c #547622",
"B  c #5B7624",
"V  c #557B22",
"C  c #5B7E21",
"Z  c #56762B",
"A  c #5E7C2A",
"S  c #5B752C",
"D  c #5D7632",
"F  c #5E7C32",
"G  c #617D24",
"H  c #627C2C",
"J  c #627B33",
"K  c #3A3A43",
"L  c #3E3E48",
"P  c #413F40",
"I  c #454342",
"U  c #494545",
"Y  c #454941",
"T  c #4A4C43",
"R  c #45454C",
"E  c #4C4B4B",
"W  c #4C474B",
"Q  c #514E4C",
"!  c #4F504A",
"~  c #515846",
"^  c #53514E",
"/  c #5A574C",
"(  c #5B5B4E",
")  c #54584A",
"_  c #4C4C53",
"`  c #4F4D58",
"'  c #464652",
"]  c #524F53",
"[  c #555352",
"{  c #595654",
"}  c #5B5956",
"|  c #54535B",
" . c #5A565B",
".. c #5D5C5B",
"X. c #555851",
"o. c #605D55",
"O. c #615E5C",
"+. c #5F605B",
"@. c #646155",
"#. c #64625E",
"$. c #69655E",
"%. c #6B685F",
"&. c #635E63",
"*. c #685F64",
"=. c #5F6160",
"-. c #656463",
";. c #696564",
":. c #676964",
">. c #6B6966",
",. c #676468",
"<. c #6A666A",
"1. c #6D6C6A",
"2. c #716E66",
"3. c #70676A",
"4. c #716D6C",
"5. c #6F706D",
"6. c #747266",
"7. c #787667",
"8. c #72716E",
"9. c #77796C",
"0. c #79796C",
"q. c #6F6D70",
"w. c #726D71",
"e. c #6F7170",
"r. c #757473",
"t. c #787674",
"y. c #777872",
"u. c #7A7976",
"i. c #77767A",
"p. c #79757A",
"a. c #7C7B7A",
"s. c #807E7C",
"d. c #578016",
"f. c #5C8316",
"g. c #57801A",
"h. c #5C821C",
"j. c #5E881C",
"k. c #61841E",
"l. c #668C1D",
"z. c #5D8122",
"x. c #5E8129",
"c. c #558122",
"v. c #618424",
"b. c #648824",
"n. c #688825",
"m. c #62832C",
"M. c #68862A",
"N. c #668A29",
"B. c #6B892C",
"V. c #6A8425",
"C. c #708B2A",
"Z. c #678831",
"A. c #658136",
"S. c #7E807F",
"D. c #81807E",
"F. c #7E7C80",
"G. c #7D7781",
"H. c #7F8180",
"J. c #848483",
"K. c #888684",
"L. c #898886",
"P. c #8D8C8A",
"I. c #918E8D",
"U. c #91918F",
"Y. c #949391",
"T. c #989795",
"R. c #999896",
"E. c #9D9C9A",
"W. c #A09F9B",
"Q. c #A1A19F",
"!. c #A5A5A3",
"~. c #ABAAA7",
"^. c #ACACAB",
"/. c #B1B1AF",
"(. c #B4B4B4",
"). c #B9B9B7",
"_. c #BCBBB9",
/* pixels */
"x x x h.C x C z z.x x.C x C z.z.g.J < . @ # > # + # > # O + # # 5 % % + % % % O + + % #   < H h.z.h z v.z.V h.x x x C z h.z.z.C ",
"h.z.v.z.C x C z.h F h g.m.C g h.J 2 y [ q.4.9.>.>.5.1.r.<.4.8.8.4.4.4.4.;.;.;.3.>.>.2.<.U 9 2 D d.A m.z C z.V z.z.z.h.x z.z.z.z.",
"z.v.v.v.z.x x z.m.f.v.A h x A v.< v 1.] ..t.;.;.;.*.-.-.*.;.;.;.<.;.;.;.;.;.;.;.#.>.a.O.| 1.u - m.C z x C z.g.B.v.z.z.z.v.b.v.z.",
"h.v.v.v.z.z x z.M.k.m.g.h k.G 6 I r.i.-...8.>.;.;.;.;.1.;.4.>.1.>.>.4.;.;.4.3.;.>.;.>.} =.i.r.a - n.k.z h.C z.M.b.z.z.z.z.z.z.z.",
"h.z.z.z.C x x z.k.m.x h v.C 6 i 4.,.w.1.} 4.O.t.>.1.1.1.<.1.<.5.;.3.2.3.3.4.4.;.1.4.8.X.8.4.-.p.u < v.v.x g.C v.z.z.C h.z.z.x x ",
"C h.h.C C h.x C x C h.v.B 6 _ 6.#.8.;.2.;.#.4.:.-.-.#.;.-.1.<.-.;.4.<.;.;.;.;.;.#.>.O.;.4.;.4...8.K - G k.x z.C z.x C C z.z C z.",
"C C x C C C x x v.k A C 3 R 6.;.>.%.>.<.} p ^ ^ [ { [ [ ! ..} X.{ O.{ Q { o.{ Q Q ..P { 4.>.$.4.O.0.L = G m.V g.C x C C C x C z.",
"C C C z.V x C z.z v.C 4 Y 0.O.3.>.>.8.[ [ <.5.8.1.t.r.;.Q E Q [ Q Q W Q <.t.w.4.4.4.<.] { r.1.$.4.&.0.i - G g.V C C x C z.C x x ",
"x h.A x x V h.C k.J * E p.;.$.<.4.1.^ Q r.8.-.i.1.r.a.{ ^ #.#.#.O.&.;.Q ..r.r.e.r.:.r.1.^ / 4.4.O./ O.p.p & A.c V h C z.x A x g.",
"x A j V C z.k k.J 2 m 8.;.;.;.>.4.{ ^ t.>.t.:.r.r.u.i.e...5.1.5.4.4.1.{ r.y.y.r.r.:.a.<.:.^ { ;./ O.O.{ a.v * H f.V x z z.h.A h.",
"H h z.x.h C Z.G < m w.#.>.4.4.8.^ ^ 4.2.^ >.4.1.i.u.r.a...4.e.i.r.p.1...a.i.r.a.:.r.-.} >.t.b Q @.$./ ;.,.t.u 3 C m.x x C z.h.B ",
"c x V z.k x V.4 I t.;.<.>.%.8.E { 4.8.O.{ O.a.:.S.i.a.a.<.-.i.i.r.a.,.-.a.a.i.a.-.a.-.#.>.8.8.E Q $.@.&.4.#.t.i : x x x z.C x C ",
"x C h.z v.G < b p.#.>.>.4.6.^  .t.;.$.2.{ ..4.-.y.H.J.L.H.G.H.H.H.J.a.H.P.H.H.i.1.a.:.1.r.u.5.1./ { 4.2.%.4.&.s.d & G b.z g.B z.",
"C C C z.B < ' 0.O.>.4.%.6. .[ r.8.t.2.$.O.X...r.T ....=.=.,.,.=.:.,.-.,.,...=.E H.1.=.1.a.5.t.t.3.} o.8.$.>.;.;.0.K - M.b.z.N.z ",
"h.A A c 6 R 7.<.2.;.5.>.} [ -.} 8.a.4.0.>.;.J...[ :.=.-.=.=.,.q.1.:.-.-.=...-.[ -.L.,.i.a.r.u.r.O.O.^  .q.6.$.1.&.0.K < C.m.V h.",
"V f.v.: i 0.,.;.<.2.1.| [ 8.o.#.-.u.a.a.a.U...:.Y.E.!.~.^.(.(._.).).^./.~.!.E.P.] :.U.i.u.a.r.:.o.O.w.Q ..1.<.>.4.&.9.u - N.f.c.",
"j.A < U r.O.4.:.1.4.] ^ 8.t.4.-.1.-.i.a.P.-.#.U.Y.R.E.Q.!.^.^.(.(.^.~.!.Q.R.R.Y.P.X.:.K.s.r.:.<.;.1.u.1.! { r.>.>.2.-.p.a - J k.",
"F 2 d w.&.1.>.4.4.[ [ 8.t.t.r.r.-.:.u.P.:...P.P.Y.R.E.E.!.^.(.(.(./.~.!.Q.E.R.Y.P.J.^ 1.P.r.:.1.4.t.r.a.r.T { 4.4.$.4...r.u 2 H ",
"= u r.a.4.2.>.2.Q ^ r.r.4.8.u.D.r.u.P.+.:.J.U.P.Y.R.E.E.!.^.(.(.(./.~.!.Q.R.R.U.P.P.L.E <.L.1.r.a.r.t.t.r.r.^ ..>.>.>.4.F.q.y < ",
"o W  .,.4.;.4.{ [ 4.1.1.a.a.S.r.J.P...-.D.L.J.U.Y.E.E.!.^.^.(.(.(.^.~.!.Q.E.R.Y.I.J.J.J.E $.I.a.a.a.u.t.1.r.<.U ..4.6.4.,.| W   ",
"q ,...} X.>.} E r.-.[ :.-.e.r.i.J.-.O.s.D.L.J.Y.Y.R.E.Q.!.^.(.(.(.^.~.~.Q.E.R.Y.P.J.J.D.a.X.-.P.F.a.r.:.:.[ r.t._ ^ 8.{ { O.1.$ ",
"% 1.y.9.>...p e.r.i.<.=.e.:.1.U.:.-.t.s.a.J.U.L.Y.R.E.!.!.^.(.(.(./.~.!.Q.E.Y.Y.I.L.K.D.u.u.{ -.P.<.,.e...-.r.r.:.b } 8.;.D.1.@ ",
"# :.>.;.4.<...r.&.1.e.r.r.-.L.=.O.t.8.s.s.P.K.I.Y.R.E.Q.!.^.(.(.(./.~.!.Q.E.R.Y.P.I.D.a.S.t.r.X.:.J.-.e.i.r.-.#.2.O.1.1.;.<.;.O ",
"# 1.$.;.3.O.X.y.a.i.1.,.q.H.=...r.4.t.s.s.D.P.I.T.R.E.Q.^.^.(.(.(./.~.~.Q.E.R.Y.P.J.L.D.t.u.1.r.| +.H.1.-.-.r.r.6.[ #.1.>.:.:.+ ",
"# 1.:.;.4.O.{ t.8.u.s.a.q._ -.5.1.8.r.a.D.D.P.I.U.R.W.Q.~.^.(.(.(./.~.!.Q.E.R.Y.P.L.D.D.u.y.8.1.5.[ E r.a.a.u.8.t.] ;.1.<.;.>.O ",
"# >.>.>.8.$...u.t.t.r.a.H...-.-.1.r.r.a.D.J.P.U.U.E.Q.Q.~.^./.(.(.^.~.!.Q.E.R.Y.I.L.K.D.u.t.8.<.5.+.| J.i.a.t.t.t.^ -.1.:.-.:.+ ",
"+ ;.O.o.#.{ X.8.t.r.r.a.L.,.1.1.1.8.t.a.D.K.P.P.Y.R.E.Q.!.^.(.(.(./.~.~.Q.E.R.Y.P.L.J.D.a.t.5.1.1...| J.r.u.t.8.t.{ ;.1.:.#.<.+ ",
"5 :.o.{ o.{ ^ $.-.1.a.a.P.=.-.:.1.8.t.a.D.D.L.U.Y.R.W.Q.!.^.(.(.(./.~.!.Q.E.R.Y.U.L.D.D.u.t.8.1.1.} =.L.a.u.r.O.;.{ ;.4.1.:.<.# ",
"O ;.o.{ O./ E Q Q ..-.<.L.1.:.q.1.r.t.a.D.J.P.P.Y.R.E.Q.~.^.(.(.(./.~.!.Q.E.R.Y.P.L.J.D.a.r.8.<.5.+.-.a.1... .T Q { :.1.1.>.1.+ ",
"+ 8.;.#.>.#.{ ^ 2.1.1.-.H.:.:.,.1.8.t.a.D.J.L.U.Y.R.E.!.!.^.(.(.(./.~.~.Q.E.R.Y.I.L.J.D.u.t.8.1.1.+. .a.-.4.8.1.Q } 1.4.:.<.:.O ",
"+ 1.#.$.4.O.} [ >.4.a.1.L.1.:.:.1.8.r.a.D.J.L.P.T.R.W.Q.~.^.(.(.(./.~.!.Q.E.R.Y.P.L.J.D.u.u.e.1.1.=...H.r.t.4.O.Q O.<.1.>.:.<.+ ",
"5 8.>.2.4.O.} [ ;.1.u.<.F.,.1.:.1.r.r.a.D.J.P.I.Y.R.E.Q.!.^.(.(.(./.~.!.Q.E.R.Y.P.L.J.S.u.r.5.1.1.=.=.H.p.t.4.O.Q } -.1.:.;.<.+ ",
"5 r.-.1.<.;.} { :.1.i.1.J.,.1.<.1.8.t.a.H.J.P.I.Y.R.E.Q.!.^.(.(.(.^.~.!.Q.E.R.Y.I.L.D.D.a.t.8.1.1.:...J.i.i.r.-.E { -.4.:.;.:.+ ",
"w 4.O.;.4.O.{ [ -.r.H.1.H.:.1.:.1.r.r.a.J.H.L.I.Y.R.E.!.!.^.(.(.(.^.^.~.Q.E.R.Y.P.L.J.D.u.t.8.1.1.+.[ r.e.r.5.+.] O.1.4.1.<.:.+ ",
"w r.:.>.4.;. .Q 1.1.q.-.H.:.<.1.1.r.r.a.F.J.P.P.Y.R.E.Q.!.^.(.(.(.^.^.!.Q.E.R.Y.P.L.J.D.u.8.8.1.r..._ e.:.q.1.:.E } 1.1.-.<.1.+ ",
"% 8.<.;.;.;.{ Q [ ..=.-.J.,.-.:.1.8.r.a.J.J.P.U.T.R.E.Q.^.^.(.(.(./.~.!.Q.E.R.Y.U.L.D.D.a.t.8.1.:...[ r.1.-...! Q ^ <.>.:.1.4.+ ",
"w r.;.;.1.-.X.....5.a.a.J.<.:.1.1.8.r.a.H.J.P.P.Y.R.Q.Q.^.^.(.(.).^.^.!.Q.E.R.Y.U.L.J.D.u.r.r.:.1.-...H.H.i.1...;.{ :.4.1.;.1.# ",
"e 4.&.4.1.#.} r.r.a.a.i.J.=.,.:.1.r.t.a.F.L.P.P.Y.R.E.Q.!.^.(.(.(.^.^.!.Q.E.R.Y.P.L.J.D.a.t.8.1.<.....L.a.a.u.u.t.{ <.1.<.:.4.5 ",
"t 3.O.;.<.+.X.r.r.8.r.H.L.=.:.:.1.r.r.a.F.L.H.U.Y.R.Q.Q.!./.(.(.(.^.~.!.Q.E.R.Y.P.L.J.D.u.t.8.1.<.....J.a.i.y.r.t.Q :.1.:.:.1.5 ",
"w t.;.;.<.-...8.1.i.H.a.r.] ,.1.1.8.y.a.G.L.P.U.Y.R.E.Q.!.^.(.(.(./.~.!.Q.E.R.Y.P.L.J.a.a.r.r.<.8.} U i.a.a.i.e.t.{ >.1.<.<.8.# ",
"5 8.$.1.w.O.X.6.a.t.1.-.1.y.=.<.4.t.8.a.D.J.L.I.Y.R.E.!.!.^.(.(.(./.~.!.Q.E.T.Y.P.P.S.S.a.r.5.e...-.i.:.<.<.t.a.0.Q ;.t.;.;.t.+ ",
"5 >.;.:.1.O...p.#.<.1.a.e.,.H...-.8.t.a.s.P.K.I.Y.R.E.Q.!.^.(.(.(./.~.!.W.E.T.Y.U.S.L.S.u.r.y.+. .J.r.F.a.r.:.:.t...4.>.<.#.;.> ",
"5 t.t.>.8.#.P <.r.4.1.-.q.:.q.L.-.-.a.t.D.K.L.I.T.R.E.Q.!.^.(.(.(./.~.!.Q.E.R.U.L.U.D.S.t.u...-.Y.,.-.1.#.8.t.8.,.P :.>.t.y.8.+ ",
"% <.-.O.} #.[ ..a.:.{ -.-.e.a.H.J.-.:.J.s.D.I.I.T.R.E.Q.!.^.(.(.(./.^.!.Q.E.R.Y.U.P.D.D.S.+.-.J.i.e.1.-.:.[ 8.u. .[ #.} } ,.<.# ",
". ] { &.1.y.>.Q { t.:.4.a.D.J.a.J.L...5.D.J.L.I.Y.R.E.Q.!.^.(.(.(./.~.!.Q.W.R.Y.P.L.K.D.#.} L.S.S.S.5.u.>.>.t.^ E 4.t.8...| _ X ",
"6 u w.p.4.;.$.8.^ { t.t.8.1.r.a.r.a.P.#.;.I.P.P.Y.R.E.!.!.^.(.).(./.^.!.Q.E.R.Y.P.L.D.+.+.U.a.a.a.r.u.t.r.0.Q { 0.>.$.>.a.1.y < ",
"Z 2 ~ 8.;.2.:.1.>.Q } 1.a.8.u.r.1.-.a.P...:.T.L.Y.T.E.Q.!.^./.(.(./.~.!.Q.R.R.Y.Y.L.+.+.S.1...+.5.>.>.:.>.^ ! >.-.>.;.<.w.n * D ",
"j.J 6 ^ 3.;.<.:.4.4.E ..8.r.5.-.:.-.a.a.P.O.1.T.Y.R.E.Q.!.^./.(.(.~.!.!.W.E.T.U.P.#.#.L.S.5.>.:.;.8.8.8.^ U $.O.O.o.} w.Y < J k.",
"z.b.N.0 m 0.&.4.<.>.2.] &.4.o.$.;.y.t.s.D.K...1.T.E.!.!././._._._.)./.^.Q.!.E.T.....Y.a.a.a.w.-.#.#.y.^ { q.1.>.4.&.9.b 4 B f.z.",
"h.m.B.c 0 | 6.*.>.>.;.;.U  .{ / :.8.1.1.#.:.a.[ 1.i.r.u.a.F.a.J.J.a.S.F.a.u.t.+. .L.i.r.S.r.u.1.{ O.} X.8.1.:.4.&.6._ < B m.z C ",
"z.x x k.c 9 | 8.$.O.O.$.;.Q ] 4.1.8.4.a.r.#.8.a._ =.+.-.:.1.-.,.:.-.-.:.=...-._ H.=.-.u.u.t.r.r.1.[ [ 8.#.2.<.-.u.R < B h.h.x.x ",
"z.C x v.h.B 0 T p.O.$.4.;.2.{  .u.1.t.s.:.<.u.:.i.L.K.K.J.H.J.J.F.H.F.P.J.J.J.a.1.r.-.:.a.t.r.r.} { w.>.2.%.O.G.m 4 l b.C g z.z.",
"x z.C z z.z.j 9 Q 0.O.r.;.2.#.[ #.8.t.:.-.-.u.-.a.a.a.u.-.-.r.q.e.1.-.<.a.a.i.r.=.r.=.<.4.u.r.X.E t.;.3.2.#.y.U : G x x z.x.g.x ",
"A j x z g.z.B N < } w.o.2.;.y.;.T } r.-.[ 1.t.1.S.a.a.u...1.t.a.a.t.1...a.u.a.D.<.q.:.[ 1.t.{ Q 8.1.3.3.#.8.n 4 B v.v.x b.N.x C ",
"x A h.m.z.z N j.J 2 / 4.$.1.<.6.1.^ ..r.1.u.#.t.u.t.u.8.X.8.4.r.r.4.r...8.t.t.u.i.,.q.:.r.^ { 4.1.;.;.;.p.n 2 S f.Z C b.m.j v.C ",
"g.h.C x C z.h.V j J 3  .w.$.>.<.1.:.[ X.u.5.:.a.r.t.t...[ 1.:.;.>.:.:.! O.t.8.8.r.,.r.r.{ Q 4.>.<.2.$.t.U 4 D x x.d.x c j C h.x ",
"C x C h.z.h.z.v.C f.C 8 E 0.&.<.;.>.4.Q  .1.8.y.4.4.t.&.Q { Q { { { Q ] ;.t.i.w.y.r.<.| ] r.>.;.4.O.t.Y 4 A f.V x x C C x x C C ",
"z.C C z.z.v.N.N.h.N m.G 9 | 7.&.;.4.2.<.] U :.{ o.Q ^ Q Q } { / } O.o.{ O.O.} } ....I { 4.:.2.;.&.8.E 1 l v.Z j h.z.h.C C C C h.",
"x C C z.z.b.z.v.C z.C z.l 7 ` 0.;.;.:.u.-.^ O...O.{ } Q ^ { ^ Q Q } o.} } ....O. .-.} $.8.2.2.*.0._ : B x v.x C C C C z.x C V C ",
"C x C z.h.z.z.h.x z.h z.c G 7 T 4.<.1.1.} t.t.4.2.3.6.2.;.$.#.#.$.O.O.O.:.>.>.1.4.5.8.} >.>.*.p.b < B v.v.g h.z.z h.z x C C C h.",
"z.C z.C h.C z x x x x.h z.n.V.4 ^ r.a.-.} >.$.>.>.;.;.>.>.1.>.:.>.;.:.:.>.;.;.;.;.%.8.) :.F.w.U - G j C z v.C h.C h.z C x C x C ",
"C x x C C C z.C C x m.V h.v.M.H 6 M r._ :.u.%.;.$.#.%.;.#.$.%.+.$.#.#.:.;.-.#.:.;.4.S.#.| 8.n - A A v.g C z.z.x.z.z.z.C z.C C x ",
"x x x C x C C x z x.j x z.C N k.J 2 u E :.r.5.5.8.t.y.t.5.1.8.8.1.8.r.r.r.r.8.5.>.;.<.-.W s ; F k.k A v.h x v.v.z.z.h.C C z.C x ",
"z.C x C x C z.C z.C A C z C h.V j J 6 . q # > w e r r e e e e 5 e w e e e r r w > O % # X - F g.z z.x x G C C h.z.h.x z x C z.C "
};
