/* XPM */
static char *c4251b2cfae64ce9a6915b3220f7e57boMp1ckgUwuLzY5Nn[] = {
/* columns rows colors chars-per-pixel */
"64 64 30 1 ",
"  c black",
". c #082C13",
"X c #2A3907",
"o c #293928",
"O c #343E2F",
"+ c #0C421C",
"@ c #0E4D21",
"# c #2D4F31",
"$ c #156E2F",
"% c #49640C",
"& c #475928",
"* c #198439",
"= c #1B8F3D",
"- c #6B901C",
"; c #7EAC15",
": c #1FA547",
"> c #22B14C",
", c #41B35C",
"< c #78976E",
"1 c #43BE61",
"2 c #7DAD78",
"3 c #7FB87C",
"4 c #4EC368",
"5 c #88BA17",
"6 c #9DD71B",
"7 c #A8E61D",
"8 c #819A6B",
"9 c #9EBA8D",
"0 c #A6E7A0",
"q c #D3F9BC",
/* pixels */
"7777777777777777777777777777777777777777777777777777777777777777",
"7777777777777777777777777777777777777777777777777777777777777777",
"7777777777777777777777777777777777777777777777777777777777777777",
"7777777777777777777777777777777777777777777777777777777777777777",
"7777777777777777777777777777777777777777777777777777777777777777",
"7777777777777777777777777777777777777777777777777777777777777777",
"7777777777777777777777777777777777777777777777777777777777777777",
"7777777777777777777777777777777777777777777777777777777777777777",
"7777777777777777777777777777777777777777777777777777777777777777",
"77777777777777777777777%XXXXXXXXXXXXXXXXX57777777777777777777777",
"77777777777777777777777X                 ;7777777777777777777777",
"77777777777777777777777X                 ;7777777777777777777777",
"77777777777777777777   *>>>>>>>>>>>>>>>>>.  77777777777777777777",
"77777777777777777777   *>>>>>>>>>>>>>>>>>.  77777777777777777777",
"77777777777777777777   *>>>>>>>>>>>>>>>>>.  77777777777777777777",
"77777777777777777%XX***:>>>>>>>>>>>>>>>>>=**XXX57777777777777777",
"77777777777777777X  >>>>>>>>>>>>>>>>>>>>>>>>   ;7777777777777777",
"77777777777777777X  >>>>>>>>>>>>>>>>>>>>>>>>   ;7777777777777777",
"77777777777777777X  >>>.     *>>>>>.     *>>   ;7777777777777777",
"77777777777777777X  >>>.     *>>>>>.     *>>   ;7777777777777777",
"77777777777777777X  >>>.     *>>>>>.     *>>   ;7777777777777777",
"77777777777777XXX899...<99999,>>>>>399999#..999&XX77777777777777",
"77777777777777   9qq   9qqqqq4>>>>>0qqqqqO  qqqO  77777777777777",
"77777777777777   9qq   9qqqqq4>>>>>0qqqqqO  qqqO  77777777777777",
"77777777777777   9qq>>>0qq   9qqqqqO  qqq4>>qqqO  77777777777777",
"77777777777777   9qq>>>0qq   9qqqqqO  qqq4>>qqqO  77777777777777",
"77777777777777   9qq>>>0qq   9qqqqqO  qqq4>>qqqO  77777777777777",
"77777777777777;;;&OO>>>0qq   9qqqqqO  qqq4>>OOO-;;77777777777777",
"77777777777777777X  >>>0qq   9qqqqqO  qqq4>>   ;7777777777777777",
"77777777777777777X  >>>0qq   9qqqqqO  qqq4>>   ;7777777777777777",
"77777777777777777777   *>>qqqqqqqqqqqq>>>.  77777777777777777777",
"77777777777777777777   *>>qqqqqqqqqqqq>>>.  77777777777777777777",
"77777777777777777777   *>>qqqqqqqqqqqq>>>.  77777777777777777777",
"77777777777777777%XX***+..OOOOOOOOOOOO...$**XXX57777777777777777",
"77777777777777777X  >>>.                 *>>   ;7777777777777777",
"77777777777777777X  >>>.                 *>>   ;7777777777777777",
"77777777777777   *>>>>>>>>>>>>>>>>>>>>>>>>>>>>>.  77777777777777",
"77777777777777   *>>>>>>>>>>>>>>>>>>>>>>>>>>>>>.  77777777777777",
"77777777777777   *>>>>>>>>>>>>>>>>>>>>>>>>>>>>>.  77777777777777",
"77777777777%XX***:>>...=>>>>>>>>>>>>>>>>>@..>>>=**XXX57777777777",
"77777777777X  >>>>>>   *>>>>>>>>>>>>>>>>>.  >>>>>>   ;7777777777",
"77777777777X  >>>>>>   *>>>>>>>>>>>>>>>>>.  >>>>>>   ;7777777777",
"77777777777X  >>>144   *>>>>>>>>>>>>>>>>>.  441>>>   ;7777777777",
"77777777777X  >>>0qq   *>>>>>>>>>>>>>>>>>.  qq0>>>   ;7777777777",
"77777777777X  >>>0qq   *>>>>>>>>>>>>>>>>>.  qq0>>>   ;7777777777",
"777777777775;;...oOO   *>>>>>>>>>>>>>>>>>.  OOo...;;;67777777777",
"77777777777777         *>>>>>>>>>>>>>>>>>.        77777777777777",
"77777777777777         *>>>>>>>>>>>>>>>>>.        77777777777777",
"77777777777777777777   *>>>>>.     *>>>>>.  77777777777777777777",
"77777777777777777777   *>>>>>.     *>>>>>.  77777777777777777777",
"77777777777777777777   *>>>>>.     *>>>>>.  77777777777777777777",
"77777777777777777777   200000o     200000o  77777777777777777777",
"77777777777777777777   9qqqqqO     9qqqqqO  77777777777777777777",
"77777777777777777777   9qqqqqO     9qqqqqO  77777777777777777777",
"7777777777777777777777777777777777777777777777777777777777777777",
"7777777777777777777777777777777777777777777777777777777777777777",
"7777777777777777777777777777777777777777777777777777777777777777",
"7777777777777777777777777777777777777777777777777777777777777777",
"7777777777777777777777777777777777777777777777777777777777777777",
"7777777777777777777777777777777777777777777777777777777777777777",
"7777777777777777777777777777777777777777777777777777777777777777",
"7777777777777777777777777777777777777777777777777777777777777777",
"7777777777777777777777777777777777777777777777777777777777777777",
"7777777777777777777777777777777777777777777777777777777777777777"
};
