/* XPM */
static char *Ground_Tile_01_B1676553036[] = {
/* columns rows colors chars-per-pixel */
"64 64 93 2 ",
"   c #5B7E20",
".  c #5C7F20",
"X  c #618422",
"o  c #618321",
"O  c #5D8021",
"+  c #5A7D20",
"@  c #648623",
"#  c #618322",
"$  c #608221",
"%  c #5E8020",
"&  c #5D8020",
"*  c #5E8121",
"=  c #698A25",
"-  c #688A24",
";  c #5E8021",
":  c #668823",
">  c #678924",
",  c #5D7F21",
"<  c #597B21",
"1  c #668824",
"2  c #698B26",
"3  c #5F8221",
"4  c #5F8121",
"5  c #628422",
"6  c #658723",
"7  c #6A8B26",
"8  c #658724",
"9  c #5C7E20",
"0  c #638523",
"q  c #668825",
"w  c #618423",
"e  c #648624",
"r  c #678925",
"t  c #597C21",
"y  c #5F8122",
"u  c #5D7F20",
"i  c #688A25",
"p  c #698A26",
"a  c #5F8222",
"s  c #5C7F21",
"d  c #608323",
"f  c #628423",
"g  c #5E8022",
"h  c #587A21",
"j  c #5B7D21",
"k  c #638524",
"l  c #608321",
"z  c #5E8122",
"x  c #638623",
"c  c #688A26",
"v  c #5B7D20",
"b  c #638522",
"n  c #648622",
"m  c #678824",
"M  c #698B25",
"N  c #587B21",
"B  c #5A7C20",
"V  c #597C20",
"C  c #5A7C21",
"Z  c #618323",
"A  c #608222",
"S  c #628522",
"D  c #688924",
"F  c #608322",
"G  c #6B8C26",
"H  c #698A24",
"J  c #5C7E21",
"K  c #678825",
"L  c #638624",
"P  c #648724",
"I  c #608223",
"U  c #638622",
"Y  c #628523",
"T  c #628524",
"R  c #5B7F20",
"E  c #668723",
"W  c #678926",
"Q  c #5A7D21",
"!  c #678823",
"~  c #658725",
"^  c #668724",
"/  c #688925",
"(  c #618324",
")  c #658624",
"_  c #5B7E21",
"`  c #6A8B25",
"'  c #6A8C26",
"]  c #688926",
"[  c #648725",
"{  c #648522",
"}  c #6A8C25",
"|  c #5D7F22",
" . c white",
/* pixels */
"                                                            .                                                             .     ",
"  X . o .                                       O . . . + + @ # $                                           . %   &     * @ # & ",
". = @ -       & ; X .                           : # > , <   1 2 3           * 4 $                           * > 5 6     * 7 8 9 ",
"  0 q w       * = = O             $ * ; 9       e r r < t   ; y             @ 7 @             . 5 u &       O i p #     9 a ,   ",
"  . O s         d f           4 . > 1 >         O d g h +     9             j k *         . * a i - l         z d s             ",
"                              0 x k c #             + < v     b 3 n *     + <             u m # q r .                           ",
"                              . a s z .               v       8 r M .     < <               * O O O                             ",
"                                                              * k w       N t                                 + +               ",
"                                                                          B +                                 V t               ",
"        +                                     5 * ;                                                       * l , t               ",
"        t   u 4   4                         9 i = 3                       3 . O &                         # 7 8 C               ",
"        < j b 1 0 @                           d Z                       4 > 5 > *                         O k ;                 ",
"        B C 0 f w s                             + +       % .           3 @ w A                                     9 . ;       ",
"                                                + t   * 6 6 5   .                                                   b S D . .   ",
"                                        .       + < +   = 2 0 5 $                 +                 .               F G i a @ . ",
"    u                             3 X X #         + v   y k * f O .             B B             b * 6 .               k F a F   ",
"u . 6 ; . O                       O e 8 *                     & 3 6   O .       < B             f e 0                           ",
"4 H G # x S         . * . 4         s s                       6 = = ; > u       C J ; ; &         s                             ",
"  f K a f O       . 6 > > x                                   O r L a Z         F : D > O                                       ",
"  + C C             1 8 P O                                     . .             a r 8 w                             + t         ",
"    + B             O O                                                           ; .                             + < B         ",
"                                                        . l   4                                                   < h 4 ; O O   ",
"                                          .             . > f @                                         9         < V # m 8 4   ",
"                                    . n O b O             * I O                                   l 5 4 5         v   . Z a     ",
"          . & v C                     0 8 1 0 9             t +         & .                       O r e 1 3                     ",
"      .   # 6 U , < +                 . * * ;                       .   > 5 b                       O * * .                     ",
"      3 b Y c M   h N +                                             @ a r 7 S                                                   ",
"      . @ y T A   + h h +       + +                                 F f a k .                                                   ",
"                    + B + 4 * O ; < +                                     R             F . 3 .                                 ",
"                        * 1 @ 1 $ V < +       . 9   &                                 # r f 1 9             .   u .             ",
"                        O 0 Z a     +         * @ 5 b                               + y f d O               @ A : O             ",
"                                              . 0 L ;                               B N               + +   A k f               ",
"  $ . 3 .                                       & . 9 .     S 3 4                   V <             + <     . O   .     ; 5 3 & ",
". H 0 -       . u $ .                           6 $ : ;     1 2 F           & ; 4   v +           + h C     * E F @     4 7 1 . ",
"  8 W 0       * - = O +           4 ; .         8 r i       y d             @ = @             . l Q C v     ; = = 5     . w ;   ",
"  s z s         Y L . B B     ; 9 > 6 ! 9       ; f A                       O ~ a         . & 3 - ^ A         F T ,             ",
"                      v < +   0 Y e 2 5                         u   . + +                 O 1 # W p .                           ",
"                        B t   O F O d .                       . : 3 : C +                   a * z y                             ",
"                                          v                     / r ^ h B                                                       ",
"                                          + +                   y T g h t                                                       ",
"                                          + < $ u &                   h <                                 O 4 & .               ",
"            . ;   &                       + < r D $                   + B * . . u                         # M 1 .         + B   ",
"          . 5 E f @                         < ( k                       * 1 # 1 4                         O ~ y         + < +   ",
"          . @ L T O                         + C           u 9           F 8 Y w             +                           C <     ",
"            . .                                       ; b n X             . .             + B                       5 A ) _     ",
"                                                      . ` M @ # $                         < t                       X ' ] 4 b . ",
"    .                             4 $ A #               F [ a 0 O .                       < <   5 O U .             . 8 w F w   ",
". 9 n O   u                       ; 8 8 4                 .   . * {   . .                 < <   0 e P                 .         ",
"3 > } F 5 S           & . O         O J t                     6 > = O 1 &         . & u . B <   . O .                           ",
"  8 p F k O       . n : 8 @           + < V                   4 2 ~ A 0         $ 6 1 1 *                                       ",
"    O . .           > 1 q ;               v                     _ _ . 9         F i K k                                         ",
"          +         * * s                                       < <             . a O                                           ",
"          + t                                           . 4   & t h                                                   * & . u   ",
"            < < +                                       . D 5 @ + t                                                   X 8 @ 3   ",
"            + h h +                 . 5 . 5 .             A Y *                                   3 $ * # v +         . Y Z .   ",
"            . + < B                   6 e m b .                         . 9                       O i x m | +                   ",
"          $ @ X *                     . a a 4                           E l 5                   + B z a y j                     ",
"      3 X 0 i ` .                                                   b * i ` @                   < +     + +                     ",
"      O 8 a e Z                                                     5 Y Z ~ ,                 B h +                             ",
"        .   .             O s . ;                                     .   .             3   ; C h v                             ",
"                        O 6 Z 8 F                   .                                 l D # m Q <               . 9             ",
"                        * @ Z I               * 5 F 5                                 5 L w z   +           b 4 6 O             ",
"                            v < t             . e e 4                                                       # e e               ",
"                              + +               s s                                                           O .               "
};
