/* XPM */
static char *_c107d4d18fa41d7d62fc1027900c5fdJCs12XELijvIlvlx[] = {
/* columns rows colors chars-per-pixel */
"64 64 27 1 ",
"  c black",
". c #082C13",
"X c #2A3907",
"o c #293928",
"O c #343E2F",
"+ c #0E4D21",
"@ c #2D4F31",
"# c #49640C",
"$ c #475928",
"% c #198439",
"& c #1B8F3D",
"* c #608C15",
"= c #7EAC15",
"- c #1FA547",
"; c #22B14C",
": c #2DB553",
"> c #43BE61",
", c #7DAD78",
"< c #7FB87C",
"1 c #4EC368",
"2 c #88BA17",
"3 c #9DD71B",
"4 c #A8E61D",
"5 c #9EBA8D",
"6 c #A6E7A0",
"7 c #B1EBA7",
"8 c #D3F9BC",
/* pixels */
"4444444444444444444444444444444444444444444444444444444444444444",
"4444444444444444444444444444444444444444444444444444444444444444",
"4444444444444444444444444444444444444444444444444444444444444444",
"4444444444444444444444444444444444444444444444444444444444444444",
"4444444444444444444444444444444444444444444444444444444444444444",
"4444444444444444444444444444444444444444444444444444444444444444",
"4444444444444444444444444444444444444444444444444444444444444444",
"4444444444444444444444444444444444444444444444444444444444444444",
"4444444444444444444444444444444444444444444444444444444444444444",
"44444444444444444444444#XXXXXXXXXXXXXXXXX24444444444444444444444",
"44444444444444444444444X                 =4444444444444444444444",
"44444444444444444444444X                 =4444444444444444444444",
"44444444444444444444   %;;;;;;;;;;;;;;;;;.  44444444444444444444",
"44444444444444444444   %;;;;;;;;;;;;;;;;;.  44444444444444444444",
"44444444444444444444   %;;;;;;;;;;;;;;;;;.  44444444444444444444",
"44444444444444444#XX%%%-;;;;;;;;;;;;;;;;;&%%XXX24444444444444444",
"44444444444444444X  ;;;;;;;;;;;;;;;;;;;;;;;;   =4444444444444444",
"44444444444444444X  ;;;;;;;;;;;;;;;;;;;;;;;;   =4444444444444444",
"44444444444444444X  ;;;.     %;;;;;;;;;;;;;;   =4444444444444444",
"44444444444444444X  ;;;.     %;;;;;;;;;;;;;;   =4444444444444444",
"44444444444444444X  ;;;.     %;;;;;;;;;;;;;;   =4444444444444444",
"44444444444444444X  ;;;<55555@..;;;;66666>;;   =4444444444444444",
"44444444444444444X  ;;;688888O  ;;;;888881;;   =4444444444444444",
"44444444444444444X  ;;;688888O  ;;;;888881;;   =4444444444444444",
"44444444444444444X  888O  888888;;;;888881;;   =4444444444444444",
"44444444444444444X  888O  888888;;;;888881;;   =4444444444444444",
"44444444444444444X  888O  888888;;;;888881;;   =4444444444444444",
"44444444444444444X  888O  888888;;;;88711:;;   =4444444444444444",
"44444444444444444X  888O  888888;;;;886;;;;;   =4444444444444444",
"44444444444444444X  888O  888888;;;;886;;;;;   =4444444444444444",
"44444444444444444444   588886;;;;;;;;;;;;.  44444444444444444444",
"44444444444444444444   588886;;;;;;;;;;;;.  44444444444444444444",
"44444444444444444444   588886;;;;;;;;;;;;.  44444444444444444444",
"44444444444444444444===$OOOOo............*==44444444444444444444",
"44444444444444444444444X                 =4444444444444444444444",
"44444444444444444444444X                 =4444444444444444444444",
"44444444444444444444444X  ;;;;;;;;;;;;   =4444444444444444444444",
"44444444444444444444444X  ;;;;;;;;;;;;   =4444444444444444444444",
"44444444444444444444444X  ;;;;;;;;;;;;   =4444444444444444444444",
"44444444444444444444444X  ;;;+..;;;;;;   =4444444444444444444444",
"44444444444444444444444X  ;;;.  ;;;;;;   =4444444444444444444444",
"44444444444444444444444X  ;;;.  ;;;;;;   =4444444444444444444444",
"44444444444444444444444X  ;;;.  11>;;;   =4444444444444444444444",
"44444444444444444444444X  ;;;.  886;;;   =4444444444444444444444",
"44444444444444444444444X  ;;;.  886;;;   =4444444444444444444444",
"44444444444444444444444X  ;;;&%%OOo...===34444444444444444444444",
"44444444444444444444444X  ;;;;;;      44444444444444444444444444",
"44444444444444444444444X  ;;;;;;      44444444444444444444444444",
"44444444444444444444444X     %;;;;;.  44444444444444444444444444",
"44444444444444444444444X     %;;;;;.  44444444444444444444444444",
"44444444444444444444444X     %;;;;;.  44444444444444444444444444",
"44444444444444444444444X     ,66666o  44444444444444444444444444",
"44444444444444444444444X     588888O  44444444444444444444444444",
"44444444444444444444444X     588888O  44444444444444444444444444",
"4444444444444444444444444444444444444444444444444444444444444444",
"4444444444444444444444444444444444444444444444444444444444444444",
"4444444444444444444444444444444444444444444444444444444444444444",
"4444444444444444444444444444444444444444444444444444444444444444",
"4444444444444444444444444444444444444444444444444444444444444444",
"4444444444444444444444444444444444444444444444444444444444444444",
"4444444444444444444444444444444444444444444444444444444444444444",
"4444444444444444444444444444444444444444444444444444444444444444",
"4444444444444444444444444444444444444444444444444444444444444444",
"4444444444444444444444444444444444444444444444444444444444444444"
};
