/* XPM */
static char *_f953eb372b64c7a9f9bde90eb677d8cMNmHIpudMdCUIUpH[] = {
/* columns rows colors chars-per-pixel */
"64 64 25 1 ",
"  c black",
". c #082C13",
"X c #2A3907",
"o c #293928",
"O c #343E2F",
"+ c #254C13",
"@ c #49640C",
"# c #198439",
"$ c #1B8F3D",
"% c #6B901C",
"& c #7EAC15",
"* c #1FA547",
"= c #22B14C",
"- c #41B35C",
"; c #78976E",
": c #43BE61",
"> c #7DAD78",
", c #4EC368",
"< c #88BA17",
"1 c #A8E61D",
"2 c #9EBA8D",
"3 c #85D98B",
"4 c #ABCA98",
"5 c #A6E7A0",
"6 c #D3F9BC",
/* pixels */
"1111111111111111111111111111111111111111111111111111111111111111",
"1111111111111111111111111111111111111111111111111111111111111111",
"1111111111111111111111111111111111111111111111111111111111111111",
"1111111111111111111111111111111111111111111111111111111111111111",
"1111111111111111111111111111111111111111111111111111111111111111",
"1111111111111111111111111111111111111111111111111111111111111111",
"1111111111111111111111111111111111111111111111111111111111111111",
"1111111111111111111111111111111111111111111111111111111111111111",
"1111111111111111111111111111111111111111111111111111111111111111",
"11111111111111111111111@XXXXXXXXXXXXXXXXX<1111111111111111111111",
"11111111111111111111111X                 &1111111111111111111111",
"11111111111111111111111X                 &1111111111111111111111",
"11111111111111111111   #=================.  11111111111111111111",
"11111111111111111111   #=================.  11111111111111111111",
"11111111111111111111   #=================.  11111111111111111111",
"11111111111111111@XX###*=================$##XXX<1111111111111111",
"11111111111111111X  ========================   &1111111111111111",
"11111111111111111X  ========================   &1111111111111111",
"11111111111111111X  ===============.     #==   &1111111111111111",
"11111111111111111X  ===============.     #==   &1111111111111111",
"11111111111111111X  ===============.     #==   &1111111111111111",
"11111111111111111X  ===355555:==...;22222-==   &1111111111111111",
"11111111111111111X  ===566666,==   266666,==   &1111111111111111",
"11111111111111111X  ===566666,==   266666,==   &1111111111111111",
"11111111111111111X  ===566666,==666666   266   &1111111111111111",
"11111111111111111X  ===566666,==666666   266   &1111111111111111",
"11111111111111111X  ===355666,==666666   266   &1111111111111111",
"11111111111111111X  ======666,==666666   266   &1111111111111111",
"11111111111111111X  ======666,==666666   266   &1111111111111111",
"11111111111111111X  ======666,==666666   266   &1111111111111111",
"11111111111111111111   #===========566666O  11111111111111111111",
"11111111111111111111   #===========566666O  11111111111111111111",
"11111111111111111111   #===========566666O  11111111111111111111",
"11111111111111111111&&&+...........oOOOOO%&&11111111111111111111",
"11111111111111111111111X                 &1111111111111111111111",
"11111111111111111111111X                 &1111111111111111111111",
"11111111111111111111111X  ======666666   &1111111111111111111111",
"11111111111111111111111X  ======666666   &1111111111111111111111",
"11111111111111111111111X  ======666666   &1111111111111111111111",
"11111111111111111111111X  ======OOO466   &1111111111111111111111",
"11111111111111111111111X  ======   266   &1111111111111111111111",
"11111111111111111111111X  ======   266   &1111111111111111111111",
"11111111111111111111111X  ===:,,   >55   &1111111111111111111111",
"11111111111111111111111X  ===566   #==   &1111111111111111111111",
"11111111111111111111111X  ===566   #==   &1111111111111111111111",
"11111111111111111111111<&&...oOO###*==   &1111111111111111111111",
"11111111111111111111111111      ======   &1111111111111111111111",
"11111111111111111111111111      ======   &1111111111111111111111",
"11111111111111111111111111   #=====.     &1111111111111111111111",
"11111111111111111111111111   #=====.     &1111111111111111111111",
"11111111111111111111111111   #=====.     &1111111111111111111111",
"11111111111111111111111111   >55555o     &1111111111111111111111",
"11111111111111111111111111   266666O     &1111111111111111111111",
"11111111111111111111111111   266666O     &1111111111111111111111",
"1111111111111111111111111111111111111111111111111111111111111111",
"1111111111111111111111111111111111111111111111111111111111111111",
"1111111111111111111111111111111111111111111111111111111111111111",
"1111111111111111111111111111111111111111111111111111111111111111",
"1111111111111111111111111111111111111111111111111111111111111111",
"1111111111111111111111111111111111111111111111111111111111111111",
"1111111111111111111111111111111111111111111111111111111111111111",
"1111111111111111111111111111111111111111111111111111111111111111",
"1111111111111111111111111111111111111111111111111111111111111111",
"1111111111111111111111111111111111111111111111111111111111111111"
};
