/* XPM */
static char *c5a94f549caa4acaf8226038e0d45948sm3s8B68qkKNpEj7[] = {
/* columns rows colors chars-per-pixel */
"64 64 2 1 ",
"  c #135A28",
". c #198439",
/* pixels */
"...   ...         ............................         ...   ...",
"...   ...         ............................         ...   ...",
"...   ...         ............................         ...   ...",
"      ...         ............................         ...      ",
"      ...         ............................         ...      ",
"      ...         ............................         ...      ",
"......            ............................            ......",
"......            ............................            ......",
"......            ............................            ......",
"         ...      ............................      ...         ",
"         ...      ............................      ...         ",
"         ...      ............................      ...         ",
"            ...   ............................   ...            ",
"            ...   ............................   ...            ",
"            ...   ............................   ...            ",
"               ..................................               ",
"               .   ....   ............   ....   .               ",
"               .    ...    ..........    ...    .               ",
"................     ..     ........     ..     ................",
".................     ..     ......     ..     .................",
"..................     ..     ....     ..     ..................",
"...................     ..     ..     ..     ...................",
"....................     ..          ..     ....................",
"................   ..    ...        ...    ..   ................",
"................    ..   ....      ....   ..    ................",
"................     .........    .........     ................",
".................     ....................     .................",
"..................     ....   ....   ....     ..................",
"...................     ...    ..    ...     ...................",
"....................     ..          ..     ....................",
".....................     ..        ..     .....................",
"......................    ...      ...    ......................",
"......................    ...      ...    ......................",
".....................     ..        ..     .....................",
"....................     ..          ..     ....................",
"...................     ...    ..    ...     ...................",
"..................     ....   ....   ....     ..................",
".................     ....................     .................",
"................     .........    .........     ................",
"................    ..   ....      ....   ..    ................",
"................   ..    ...        ...    ..   ................",
"....................     ..          ..     ....................",
"...................     ..     ..     ..     ...................",
"..................     ..     ....     ..     ..................",
".................     ..     ......     ..     .................",
"................     ..     ........     ..     ................",
"               .    ...    ..........    ...    .               ",
"               .   ....   ............   ....   .               ",
"               ..................................               ",
"            ...   ............................   ...            ",
"            ...   ............................   ...            ",
"            ...   ............................   ...            ",
"         ...      ............................      ...         ",
"         ...      ............................      ...         ",
"         ...      ............................      ...         ",
"......            ............................            ......",
"......            ............................            ......",
"......            ............................            ......",
"      ...         ............................         ...      ",
"      ...         ............................         ...      ",
"      ...         ............................         ...      ",
"...   ...         ............................         ...   ...",
"...   ...         ............................         ...   ...",
"...   ...         ............................         ...   ..."
};
